# xmcd
#
# Track frame offsets: 
#        150
#        24057
#        46337
#
# Disc length: 933 seconds
#
# Revision: 0
# Processed by: cddbd v1.5.1PL0 Copyright (c) Steve Scherf et al.
# Submitted via: ExactAudioCopy v0.95a5
#
DISCID=1503a303
DTITLE=Coffee Color - Jinsei ni kanpaiwo!
DYEAR=2004
DGENRE=JPop
TTITLE0=Jinsei ni kanpaiwo!
TTITLE1=Pi-chan
TTITLE2=Jinsei ni kanpaiwo!(Instrumental)
EXTD=
EXTT0=
EXTT1=
EXTT2=
PLAYORDER=
